<mxfile host="app.diagrams.net" agent="Mozilla/5.0 (Macintosh; Intel Mac OS X 10_15_7) AppleWebKit/537.36 (KHTML, like Gecko) Chrome/131.0.0.0 Safari/537.36" version="24.9.3">
  <diagram name="Page-1" id="aDiu15rw0cy9OTBpyGvR">
    <mxGraphModel dx="1026" dy="591" grid="1" gridSize="10" guides="1" tooltips="1" connect="1" arrows="1" fold="1" page="1" pageScale="1" pageWidth="827" pageHeight="1169" math="0" shadow="0">
      <root>
        <mxCell id="0" />
        <mxCell id="1" parent="0" />
        <mxCell id="Wjjnw8Yn3LGWxYWek6Te-2" value="background.js" style="rounded=1;whiteSpace=wrap;html=1;" parent="1" vertex="1">
          <mxGeometry x="170" y="310" width="120" height="60" as="geometry" />
        </mxCell>
        <mxCell id="Wjjnw8Yn3LGWxYWek6Te-4" value="Active Web Page" style="swimlane;whiteSpace=wrap;html=1;" parent="1" vertex="1">
          <mxGeometry x="430" y="90" width="200" height="140" as="geometry" />
        </mxCell>
        <mxCell id="Wjjnw8Yn3LGWxYWek6Te-3" value="content.js" style="rounded=1;whiteSpace=wrap;html=1;" parent="Wjjnw8Yn3LGWxYWek6Te-4" vertex="1">
          <mxGeometry x="40" y="40" width="120" height="60" as="geometry" />
        </mxCell>
        <mxCell id="Wjjnw8Yn3LGWxYWek6Te-6" value="popup.html" style="swimlane;whiteSpace=wrap;html=1;" parent="1" vertex="1">
          <mxGeometry x="130" y="90" width="200" height="140" as="geometry" />
        </mxCell>
        <mxCell id="Wjjnw8Yn3LGWxYWek6Te-7" value="popup.js" style="rounded=1;whiteSpace=wrap;html=1;" parent="Wjjnw8Yn3LGWxYWek6Te-6" vertex="1">
          <mxGeometry x="40" y="40" width="120" height="60" as="geometry" />
        </mxCell>
        <mxCell id="1falLYeCKp88w8wqriSW-1" value="" style="endArrow=classic;startArrow=classic;html=1;rounded=0;exitX=1;exitY=0.5;exitDx=0;exitDy=0;entryX=0.5;entryY=0;entryDx=0;entryDy=0;edgeStyle=orthogonalEdgeStyle;" edge="1" parent="Wjjnw8Yn3LGWxYWek6Te-6" source="Wjjnw8Yn3LGWxYWek6Te-7" target="Wjjnw8Yn3LGWxYWek6Te-6">
          <mxGeometry width="50" height="50" relative="1" as="geometry">
            <mxPoint x="284" y="130" as="sourcePoint" />
            <mxPoint x="100" y="-10" as="targetPoint" />
            <Array as="points">
              <mxPoint x="230" y="70" />
              <mxPoint x="230" y="-50" />
              <mxPoint x="100" y="-50" />
            </Array>
          </mxGeometry>
        </mxCell>
        <mxCell id="1falLYeCKp88w8wqriSW-2" value="Configuration/Display" style="edgeLabel;html=1;align=center;verticalAlign=middle;resizable=0;points=[];" vertex="1" connectable="0" parent="1falLYeCKp88w8wqriSW-1">
          <mxGeometry x="0.2541" y="-3" relative="1" as="geometry">
            <mxPoint as="offset" />
          </mxGeometry>
        </mxCell>
        <mxCell id="Wjjnw8Yn3LGWxYWek6Te-8" value="" style="endArrow=classic;html=1;rounded=0;exitX=0.5;exitY=1;exitDx=0;exitDy=0;entryX=0.5;entryY=0;entryDx=0;entryDy=0;" parent="1" source="Wjjnw8Yn3LGWxYWek6Te-7" target="Wjjnw8Yn3LGWxYWek6Te-2" edge="1">
          <mxGeometry width="50" height="50" relative="1" as="geometry">
            <mxPoint x="480" y="380" as="sourcePoint" />
            <mxPoint x="530" y="330" as="targetPoint" />
          </mxGeometry>
        </mxCell>
        <mxCell id="Wjjnw8Yn3LGWxYWek6Te-9" value="1. Invoke summarisePage call" style="edgeLabel;html=1;align=center;verticalAlign=middle;resizable=0;points=[];" parent="Wjjnw8Yn3LGWxYWek6Te-8" vertex="1" connectable="0">
          <mxGeometry x="0.2" y="3" relative="1" as="geometry">
            <mxPoint as="offset" />
          </mxGeometry>
        </mxCell>
        <mxCell id="Wjjnw8Yn3LGWxYWek6Te-10" value="" style="endArrow=classic;html=1;rounded=0;exitX=0.5;exitY=1;exitDx=0;exitDy=0;entryX=0.5;entryY=1;entryDx=0;entryDy=0;edgeStyle=orthogonalEdgeStyle;" parent="1" source="Wjjnw8Yn3LGWxYWek6Te-2" target="Wjjnw8Yn3LGWxYWek6Te-3" edge="1">
          <mxGeometry width="50" height="50" relative="1" as="geometry">
            <mxPoint x="480" y="380" as="sourcePoint" />
            <mxPoint x="530" y="330" as="targetPoint" />
            <Array as="points">
              <mxPoint x="230" y="420" />
              <mxPoint x="530" y="420" />
            </Array>
          </mxGeometry>
        </mxCell>
        <mxCell id="Wjjnw8Yn3LGWxYWek6Te-11" value="2. Inject content.js" style="edgeLabel;html=1;align=center;verticalAlign=middle;resizable=0;points=[];" parent="Wjjnw8Yn3LGWxYWek6Te-10" vertex="1" connectable="0">
          <mxGeometry x="-0.2" y="-1" relative="1" as="geometry">
            <mxPoint as="offset" />
          </mxGeometry>
        </mxCell>
        <mxCell id="Wjjnw8Yn3LGWxYWek6Te-12" value="" style="endArrow=classic;html=1;rounded=0;exitX=0.25;exitY=1;exitDx=0;exitDy=0;edgeStyle=orthogonalEdgeStyle;" parent="1" source="Wjjnw8Yn3LGWxYWek6Te-3" edge="1">
          <mxGeometry width="50" height="50" relative="1" as="geometry">
            <mxPoint x="480" y="380" as="sourcePoint" />
            <mxPoint x="290" y="350" as="targetPoint" />
            <Array as="points">
              <mxPoint x="500" y="350" />
              <mxPoint x="290" y="350" />
            </Array>
          </mxGeometry>
        </mxCell>
        <mxCell id="Wjjnw8Yn3LGWxYWek6Te-13" value="4. Invoke summarise, pass extracted text" style="edgeLabel;html=1;align=center;verticalAlign=middle;resizable=0;points=[];" parent="Wjjnw8Yn3LGWxYWek6Te-12" vertex="1" connectable="0">
          <mxGeometry x="0.3111" relative="1" as="geometry">
            <mxPoint as="offset" />
          </mxGeometry>
        </mxCell>
        <mxCell id="Wjjnw8Yn3LGWxYWek6Te-14" value="" style="endArrow=classic;html=1;rounded=0;exitX=1;exitY=0.25;exitDx=0;exitDy=0;entryX=0;entryY=0.5;entryDx=0;entryDy=0;edgeStyle=orthogonalEdgeStyle;" parent="1" source="Wjjnw8Yn3LGWxYWek6Te-2" target="Wjjnw8Yn3LGWxYWek6Te-3" edge="1">
          <mxGeometry width="50" height="50" relative="1" as="geometry">
            <mxPoint x="480" y="380" as="sourcePoint" />
            <mxPoint x="530" y="330" as="targetPoint" />
          </mxGeometry>
        </mxCell>
        <mxCell id="Wjjnw8Yn3LGWxYWek6Te-15" value="3. Invoke extractText" style="edgeLabel;html=1;align=center;verticalAlign=middle;resizable=0;points=[];" parent="Wjjnw8Yn3LGWxYWek6Te-14" vertex="1" connectable="0">
          <mxGeometry x="-0.0609" y="-2" relative="1" as="geometry">
            <mxPoint as="offset" />
          </mxGeometry>
        </mxCell>
        <mxCell id="Wjjnw8Yn3LGWxYWek6Te-16" value="Ollama REST API" style="rounded=1;whiteSpace=wrap;html=1;" parent="1" vertex="1">
          <mxGeometry x="170" y="560" width="120" height="60" as="geometry" />
        </mxCell>
        <mxCell id="Wjjnw8Yn3LGWxYWek6Te-17" value="" style="endArrow=classic;html=1;rounded=0;exitX=0.25;exitY=1;exitDx=0;exitDy=0;entryX=0.25;entryY=0;entryDx=0;entryDy=0;" parent="1" source="Wjjnw8Yn3LGWxYWek6Te-2" target="Wjjnw8Yn3LGWxYWek6Te-16" edge="1">
          <mxGeometry width="50" height="50" relative="1" as="geometry">
            <mxPoint x="205" y="510" as="sourcePoint" />
            <mxPoint x="255" y="460" as="targetPoint" />
          </mxGeometry>
        </mxCell>
        <mxCell id="Wjjnw8Yn3LGWxYWek6Te-18" value="5. Prompt LLM to summarise text" style="edgeLabel;html=1;align=center;verticalAlign=middle;resizable=0;points=[];" parent="Wjjnw8Yn3LGWxYWek6Te-17" vertex="1" connectable="0">
          <mxGeometry x="0.1053" y="4" relative="1" as="geometry">
            <mxPoint as="offset" />
          </mxGeometry>
        </mxCell>
        <mxCell id="Wjjnw8Yn3LGWxYWek6Te-19" value="" style="endArrow=classic;html=1;rounded=0;exitX=0;exitY=0.5;exitDx=0;exitDy=0;entryX=0;entryY=0.75;entryDx=0;entryDy=0;edgeStyle=elbowEdgeStyle;elbow=vertical;" parent="1" source="Wjjnw8Yn3LGWxYWek6Te-16" target="Wjjnw8Yn3LGWxYWek6Te-2" edge="1">
          <mxGeometry width="50" height="50" relative="1" as="geometry">
            <mxPoint x="150" y="585" as="sourcePoint" />
            <mxPoint x="200" y="535" as="targetPoint" />
            <Array as="points">
              <mxPoint x="70" y="465" />
            </Array>
          </mxGeometry>
        </mxCell>
        <mxCell id="Wjjnw8Yn3LGWxYWek6Te-20" value="5.1. Streamed Response" style="edgeLabel;html=1;align=center;verticalAlign=middle;resizable=0;points=[];" parent="Wjjnw8Yn3LGWxYWek6Te-19" vertex="1" connectable="0">
          <mxGeometry x="0.1511" y="-1" relative="1" as="geometry">
            <mxPoint as="offset" />
          </mxGeometry>
        </mxCell>
        <mxCell id="Wjjnw8Yn3LGWxYWek6Te-21" value="" style="endArrow=classic;html=1;rounded=0;exitX=0;exitY=0.25;exitDx=0;exitDy=0;entryX=0;entryY=0.5;entryDx=0;entryDy=0;edgeStyle=orthogonalEdgeStyle;" parent="1" source="Wjjnw8Yn3LGWxYWek6Te-2" target="Wjjnw8Yn3LGWxYWek6Te-7" edge="1">
          <mxGeometry width="50" height="50" relative="1" as="geometry">
            <mxPoint x="390" y="440" as="sourcePoint" />
            <mxPoint x="440" y="390" as="targetPoint" />
            <Array as="points">
              <mxPoint x="60" y="325" />
              <mxPoint x="60" y="160" />
            </Array>
          </mxGeometry>
        </mxCell>
        <mxCell id="Wjjnw8Yn3LGWxYWek6Te-22" value="6. Update Content" style="edgeLabel;html=1;align=center;verticalAlign=middle;resizable=0;points=[];" parent="Wjjnw8Yn3LGWxYWek6Te-21" vertex="1" connectable="0">
          <mxGeometry x="0.1013" y="-2" relative="1" as="geometry">
            <mxPoint as="offset" />
          </mxGeometry>
        </mxCell>
      </root>
    </mxGraphModel>
  </diagram>
</mxfile>
